<?xml version="1.0" encoding="utf-8"?>
<!-- Generator: Adobe Illustrator 25.0.0, SVG Export Plug-In . SVG Version: 6.00 Build 0)  -->
<svg version="1.1" id="레이어_1" xmlns="http://www.w3.org/2000/svg" xmlns:xlink="http://www.w3.org/1999/xlink" x="0px"
	 y="0px" viewBox="0 0 1920 1080" style="enable-background:new 0 0 1920 1080;" xml:space="preserve">
<style type="text/css">
	.st0{fill:#BFA700;}
</style>
<g>
	<rect x="695" y="309" class="st0" width="303" height="303"/>
</g>
<g>
	<rect x="720.5" y="363.5" width="103" height="103"/>
	<path d="M823,364v102H721V364H823 M824,363H720v104h104V363L824,363z"/>
</g>
<g>
	<rect x="864.5" y="363.5" width="103" height="103"/>
	<path d="M967,364v102H865V364H967 M968,363H864v104h104V363L968,363z"/>
</g>
<g>
	<rect x="733.5" y="527.5" width="226" height="28"/>
	<path d="M959,528v27H734v-27H959 M960,527H733v29h227V527L960,527z"/>
</g>
</svg>
